<svg aria-hidden="true" style="position: absolute; width: 0; height: 0; overflow: hidden;" version="1.1" xmlns="http://www.w3.org/2000/svg" xmlns:xlink="http://www.w3.org/1999/xlink">
<defs>
<symbol id="icon-arrow-default" viewBox="0 0 82 32">
<path d="M81.414 17.414c0.781-0.781 0.781-2.047 0-2.828l-12.728-12.728c-0.781-0.781-2.047-0.781-2.828 0s-0.781 2.047 0 2.828l11.314 11.314-11.314 11.314c-0.781 0.781-0.781 2.047 0 2.828s2.047 0.781 2.828 0l12.728-12.728zM0 18h80v-4h-80v4z"></path>
</symbol>
<symbol id="icon-btn-close-menu" viewBox="0 0 32 32">
<path fill="#fcfcfc" style="fill: var(--color1, #fcfcfc)" d="M23.884 6.706l-7.884 7.884-7.884-7.884c-0.19-0.174-0.439-0.267-0.696-0.261s-0.502 0.11-0.684 0.292c-0.182 0.182-0.286 0.427-0.292 0.684s0.088 0.506 0.261 0.696l7.88 7.884-7.882 7.882c-0.096 0.092-0.173 0.202-0.226 0.324s-0.081 0.253-0.083 0.386 0.023 0.265 0.073 0.388c0.050 0.123 0.124 0.235 0.218 0.329s0.206 0.169 0.329 0.219 0.255 0.075 0.388 0.074c0.133-0.002 0.264-0.029 0.386-0.082s0.232-0.13 0.324-0.226l7.886-7.882 7.884 7.884c0.19 0.174 0.439 0.267 0.696 0.262s0.502-0.11 0.684-0.292c0.182-0.182 0.286-0.427 0.292-0.684s-0.088-0.506-0.262-0.696l-7.884-7.884 7.884-7.886c0.096-0.092 0.173-0.202 0.226-0.324s0.081-0.253 0.083-0.386c0.002-0.133-0.023-0.265-0.073-0.388s-0.124-0.235-0.218-0.329c-0.094-0.094-0.206-0.169-0.329-0.219s-0.255-0.075-0.388-0.074-0.264 0.029-0.386 0.082c-0.122 0.053-0.232 0.13-0.324 0.226v0.002z"></path>
</symbol>
<symbol id="icon-btn-close-modal" viewBox="0 0 32 32">
<path d="M17.18 15.371l6.935-7.007c0.137-0.162 0.209-0.37 0.201-0.582s-0.095-0.415-0.245-0.565c-0.149-0.151-0.349-0.239-0.559-0.247s-0.416 0.064-0.577 0.203l-6.935 7.007-6.935-7.016c-0.158-0.159-0.371-0.249-0.594-0.249s-0.436 0.089-0.594 0.249c-0.158 0.159-0.246 0.375-0.246 0.6s0.088 0.441 0.246 0.6l6.944 7.007-6.944 7.007c-0.088 0.076-0.159 0.169-0.209 0.274s-0.078 0.219-0.083 0.336c-0.004 0.116 0.015 0.232 0.057 0.341s0.106 0.207 0.187 0.289c0.082 0.082 0.179 0.147 0.286 0.189s0.222 0.062 0.337 0.058c0.115-0.005 0.228-0.033 0.332-0.084s0.196-0.123 0.271-0.211l6.944-7.007 6.935 7.007c0.16 0.138 0.366 0.211 0.577 0.203s0.41-0.096 0.559-0.247c0.149-0.15 0.236-0.352 0.245-0.565s-0.064-0.421-0.201-0.582l-6.935-7.007z"></path>
</symbol>
<symbol id="icon-burger" viewBox="0 0 32 32">
<path fill="none" stroke="#fff" stroke-width="2.9091" stroke-miterlimit="4" stroke-linecap="round" stroke-linejoin="miter" style="stroke: var(--color2, #fff)" d="M1.455 7.273h29.091"></path>
<path fill="none" stroke="#fff" stroke-width="2.9091" stroke-miterlimit="4" stroke-linecap="round" stroke-linejoin="miter" style="stroke: var(--color2, #fff)" d="M1.455 16h29.091"></path>
<path fill="none" stroke="#fff" stroke-width="2.9091" stroke-miterlimit="4" stroke-linecap="round" stroke-linejoin="miter" style="stroke: var(--color2, #fff)" d="M1.455 24.727h29.091"></path>
</symbol>
<symbol id="icon-facebook" viewBox="0 0 31 32">
<path fill="#f8d24e" style="fill: var(--color1, #f8d24e)" d="M15.515 31.948c8.569 0 15.515-6.948 15.515-15.519s-6.946-15.519-15.515-15.519c-8.569 0-15.515 6.948-15.515 15.519s6.946 15.519 15.515 15.519z"></path>
<path  d="M19.826 16.412h-2.531v9.329h-3.835v-9.329h-1.824v-3.279h1.824v-2.122c0-1.517 0.716-3.893 3.869-3.893l2.841 0.012v3.183h-2.061c-0.338 0-0.813 0.17-0.813 0.894v1.93h2.866l-0.335 3.276z"></path>
</symbol>
<symbol id="icon-github" viewBox="0 0 31 32">
<path fill="#f8d24e" style="fill: var(--color1, #f8d24e)" d="M31.030 16.43c0 8.571-6.946 15.519-15.515 15.519s-15.515-6.948-15.515-15.519c0-8.571 6.946-15.519 15.515-15.519s15.515 6.948 15.515 15.519z"></path>
<path  d="M15.515 7.301c-5.013 0-9.127 4.115-9.127 9.129 0 4.279 3.002 8.165 6.988 9.129v-3.020c-0.395 0.087-0.758 0.089-1.16-0.030-0.539-0.159-0.978-0.519-1.303-1.067-0.207-0.35-0.575-0.729-0.958-0.701l-0.094-1.066c0.829-0.071 1.546 0.505 1.972 1.221 0.189 0.318 0.407 0.505 0.686 0.587 0.27 0.079 0.56 0.041 0.898-0.078 0.085-0.677 0.395-0.93 0.629-1.286v-0c-2.377-0.355-3.325-1.616-3.701-2.612-0.498-1.322-0.231-2.974 0.65-4.017 0.017-0.020 0.048-0.074 0.036-0.111-0.404-1.221 0.088-2.23 0.106-2.338 0.466 0.138 0.542-0.139 2.025 0.763l0.256 0.154c0.107 0.064 0.073 0.027 0.181 0.019 0.619-0.168 1.272-0.261 1.915-0.269 0.648 0.008 1.297 0.101 1.942 0.276l0.083 0.008c-0.007-0.001 0.023-0.005 0.073-0.035 1.853-1.123 1.786-0.756 2.283-0.917 0.018 0.107 0.504 1.133 0.104 2.339-0.054 0.166 1.606 1.687 0.686 4.128-0.376 0.996-1.323 2.257-3.7 2.612v0c0.305 0.465 0.671 0.712 0.669 1.67v3.77c3.986-0.963 6.988-4.85 6.988-9.129 0-5.014-4.114-9.129-9.126-9.129v0z"></path>
</symbol>
<symbol id="icon-telegram" viewBox="0 0 32 32">
<path fill="#f8d24e" style="fill: var(--color1, #f8d24e)" d="M31.259 16.43c0 8.571-6.946 15.519-15.515 15.519s-15.515-6.948-15.515-15.519c0-8.571 6.946-15.519 15.515-15.519s15.515 6.948 15.515 15.519z"></path>
<path d="M12.705 18.734l-0.308 4.044c0.441 0 0.631-0.177 0.86-0.389l2.066-1.843 4.281 2.926c0.785 0.409 1.338 0.193 1.55-0.674l2.811-12.292c0.249-1.083-0.42-1.507-1.185-1.241l-16.516 5.903c-1.127 0.408-1.11 0.995-0.192 1.261l4.223 1.226 9.808-5.729c0.462-0.285 0.881-0.127 0.536 0.158l-7.934 6.65z"></path>
</symbol>
<symbol id="icon-button" viewBox="0 0 32 32">
<path stroke-linejoin="round" stroke-linecap="round" stroke-miterlimit="4" stroke-width="5.3333" d="M10.667 5.333l13.2 10.667-13.2 10.667"></path>
</symbol>
</defs>
</svg>
